<?xml version="1.0" standalone="no"?>
<!DOCTYPE svg PUBLIC "-//W3C//DTD SVG 20010904//EN"
 "http://www.w3.org/TR/2001/REC-SVG-20010904/DTD/svg10.dtd">
<svg version="1.0" xmlns="http://www.w3.org/2000/svg"
 width="512.000000pt" height="512.000000pt" viewBox="0 0 512.000000 512.000000"
 preserveAspectRatio="xMidYMid meet">
<metadata>
Created by potrace 1.11, written by Peter Selinger 2001-2013
</metadata>
<g transform="translate(0.000000,512.000000) scale(0.100000,-0.100000)"
fill="#000000" stroke="none">
<path d="M2539 5036 c-2 -2 -60 -6 -129 -10 -69 -3 -136 -8 -150 -10 -14 -3
-43 -7 -65 -11 -22 -3 -56 -8 -75 -11 -114 -17 -331 -78 -462 -130 -571 -225
-1024 -636 -1310 -1189 -105 -203 -207 -516 -234 -720 -3 -27 -8 -59 -10 -70
-17 -83 -23 -396 -11 -545 43 -499 244 -982 572 -1374 55 -66 177 -190 255
-260 97 -86 299 -236 320 -236 5 0 10 -4 10 -10 0 -5 4 -10 9 -10 4 0 46 -22
92 -49 265 -152 610 -263 924 -297 33 -3 74 -8 90 -10 39 -5 340 -4 385 1 19
2 60 7 90 10 348 39 687 154 990 337 516 311 907 810 1084 1381 43 139 71 256
81 342 3 22 7 51 10 65 30 148 25 507 -10 720 -22 137 -23 143 -56 263 -224
826 -874 1485 -1699 1722 -64 18 -143 38 -176 44 -32 6 -70 14 -84 17 -57 12
-251 32 -334 33 -49 1 -93 4 -96 6 -4 3 -9 3 -11 1z m261 -170 c14 -2 57 -9
97 -15 194 -29 429 -107 619 -206 302 -156 525 -345 733 -620 17 -22 34 -44
38 -50 69 -90 181 -301 236 -445 43 -111 98 -308 112 -400 4 -25 9 -54 11 -65
9 -46 18 -197 18 -295 2 -663 -312 -1292 -844 -1691 -266 -199 -630 -355 -920
-394 -25 -3 -52 -8 -60 -10 -81 -21 -489 -21 -570 0 -8 2 -35 7 -60 10 -91 12
-288 66 -404 110 -415 157 -770 443 -1019 820 -159 241 -285 577 -322 857 -28
212 -26 445 6 628 17 101 20 115 35 175 173 685 665 1233 1323 1474 119 44
316 95 411 107 30 3 82 10 115 14 62 7 401 4 445 -4z"/>
<path d="M1605 4240 c-82 -18 -228 -121 -360 -254 -162 -164 -260 -321 -330
-530 -44 -130 -43 -198 2 -254 37 -46 77 -70 134 -80 117 -22 193 39 228 183
36 145 164 344 292 451 81 68 88 73 142 104 93 52 129 100 129 174 0 129 -119
232 -237 206z"/>
</g>
</svg>
